<?xml version="1.0" standalone="no"?><!DOCTYPE svg PUBLIC "-//W3C//DTD SVG 1.1//EN" "http://www.w3.org/Graphics/SVG/1.1/DTD/svg11.dtd"><svg t="1614158074920" class="icon" viewBox="0 0 1293 1024" version="1.1" xmlns="http://www.w3.org/2000/svg" p-id="4184" xmlns:xlink="http://www.w3.org/1999/xlink" width="60.609375" height="48"><defs><style type="text/css"></style></defs><path d="M680.96 493.002a216.468 216.468 0 0 0-34.035-3.045c-74.482 0.027-148.91 33.738-188.82 102.885-59.526 103.1-22.231 239.859 80.87 299.358 33.926 19.618 71.194 24.01 107.762 24.01 74.482 0 148.695-38.642 188.631-107.789 45.056-78.04 33.712-167.586-18.19-234.738l72.085-277.262L680.96 493.002z m59.096 266.429c-19.214 33.253-54.838 48.99-93.32 48.99-18.997 0-37.24 0.054-53.867-9.566a107.87 107.87 0 0 1-39.45-147.187 108.301 108.301 0 0 1 93.533-53.921c18.971 0 37.026 4.877 53.653 14.497a107.87 107.87 0 0 1 39.45 147.187zM646.736 0C289.55 0 0 308.09 0 673.684 0 807.344 38.831 919.956 105.364 1024h271.9V916.21h-215.58c-38.993-77.58-53.895-154.38-53.895-242.526 0-304.182 241.772-565.895 538.948-565.895s538.947 261.713 538.947 565.895c0 88.145-14.902 164.945-53.895 242.527H916.211V1024h269.473c66.56-104.044 107.79-216.657 107.79-350.316C1293.474 308.09 1003.924 0 646.737 0z" p-id="4185"></path></svg>