<?xml version="1.0" standalone="no"?><!DOCTYPE svg PUBLIC "-//W3C//DTD SVG 1.1//EN" "http://www.w3.org/Graphics/SVG/1.1/DTD/svg11.dtd"><svg t="1614158386624" class="icon" viewBox="0 0 1066 1024" version="1.1" xmlns="http://www.w3.org/2000/svg" p-id="6683" xmlns:xlink="http://www.w3.org/1999/xlink" width="49.96875" height="48"><defs><style type="text/css"></style></defs><path d="M106.666667 170.24v683.52c0 46.933333 37.973333 84.906667 84.906666 84.906667h683.52c46.933333 0 84.906667-37.973333 84.906667-84.906667V170.24c0-46.933333-37.973333-84.906667-84.906667-84.906667H191.573333c-46.933333 0-84.906667 37.973333-84.906666 84.906667z m-85.333334 0A170.197333 170.197333 0 0 1 191.573333 0h683.52a170.197333 170.197333 0 0 1 170.24 170.24v683.52A170.197333 170.197333 0 0 1 875.093333 1024H191.573333A170.197333 170.197333 0 0 1 21.333333 853.76V170.24z" fill="#666E70" p-id="6684"></path><path d="M298.666667 341.333333a42.666667 42.666667 0 1 0 0-85.333333 42.666667 42.666667 0 0 0 0 85.333333z m0 85.333334a128 128 0 1 1 0-256 128 128 0 0 1 0 256zM526.08 756.693333a42.666667 42.666667 0 0 0 55.509333-5.248l323.84-337.92a42.666667 42.666667 0 1 0-61.568-59.050666l-298.410666 311.338666-135.594667-96.170666a42.666667 42.666667 0 0 0-54.656 4.437333L162.048 764.586667a42.666667 42.666667 0 0 0 59.904 60.757333l167.68-165.418667 136.490667 96.768z" p-id="6685"></path></svg>
