<?xml version="1.0" standalone="no"?><!DOCTYPE svg PUBLIC "-//W3C//DTD SVG 1.1//EN" "http://www.w3.org/Graphics/SVG/1.1/DTD/svg11.dtd"><svg t="1614158161242" class="icon" viewBox="0 0 1024 1024" version="1.1" xmlns="http://www.w3.org/2000/svg" p-id="4970" xmlns:xlink="http://www.w3.org/1999/xlink" width="48" height="48"><defs><style type="text/css"></style></defs><path d="M664.977478 477.316129a259.027957 259.027957 0 0 0 110.107527-210.855914 266.460215 266.460215 0 0 0-532.92043 0 259.027957 259.027957 0 0 0 110.107527 210.855914A431.070968 431.070968 0 0 0 68.469951 878.933333a145.341935 145.341935 0 0 0 146.71828 144.791398h585.772043A145.617204 145.617204 0 0 0 949.330166 878.933333a431.621505 431.621505 0 0 0-284.352688-401.617204zM321.441994 266.735484a186.632258 186.632258 0 1 1 192.688172 182.227957H508.900059a184.705376 184.705376 0 0 1-187.458065-182.227957zM800.960274 944.172043H215.188231a65.789247 65.789247 0 0 1-66.890323-64.963441 359.776344 359.776344 0 0 1 719.552688 0 66.064516 66.064516 0 0 1-66.615053 65.23871z m0 0" p-id="4971"></path></svg>