<?xml version="1.0" encoding="UTF-8" standalone="no"?>
<!DOCTYPE svg PUBLIC "-//W3C//DTD SVG 1.1//EN" "http://www.w3.org/Graphics/SVG/1.1/DTD/svg11.dtd">
<svg width="100%" height="100%" viewBox="0 0 61 68" version="1.1" xmlns="http://www.w3.org/2000/svg" xmlns:xlink="http://www.w3.org/1999/xlink" xml:space="preserve" xmlns:serif="http://www.serif.com/" style="fill-rule:evenodd;clip-rule:evenodd;stroke-linejoin:round;stroke-miterlimit:2;">
    <g id="PSD">
    </g>
    <g id="music">
    </g>
    <g id="RAR">
    </g>
    <g id="link">
    </g>
    <g id="ics">
    </g>
    <g id="pdf">
    </g>
    <g id="apk">
    </g>
    <g id="mov">
    </g>
    <g id="pic">
    </g>
    <g id="PPT">
    </g>
    <g id="ECEL">
    </g>
    <g id="doc">
    </g>
    <g id="zip">
    </g>
    <g id="画板1" transform="matrix(0.786543,0,0,0.7043,244.363,-97.5106)">
        <rect x="-310.68" y="138.45" width="77.555" height="96.55" style="fill:none;"/>
        <g id="apk1" serif:id="apk" transform="matrix(1.27139,0,0,1.41985,-463.243,-311.646)">
            <path id="圆角矩形-1-拷贝-3" serif:id="圆角矩形 1 拷贝 3" d="M167.5,343.995L168,343.495L168,383C168,384.096 167.119,384.986 166,385L122,385C120.895,385 120,384.105 120,383L120,333C120,331.896 120.895,331 122,331L154.505,331L167.5,343.995Z" style="fill:rgb(108,183,47);"/>
            <path id="隐藏。" d="M159.5,361C160.328,361 161,361.672 161,362.5L161,372.5C161,373.329 160.328,374 159.5,374C158.672,374 158,373.329 158,372.5L158,362.5C158,361.672 158.672,361 159.5,361ZM128.5,361C129.329,361 130,361.672 130,362.5L130,372.5C130,373.329 129.329,374 128.5,374C127.672,374 127,373.329 127,372.5L127,362.5C127,361.672 127.672,361 128.5,361ZM133,361L155,361C155.552,361 156,361.448 156,362L156,373C156,373.552 155.074,373.386 154.522,373.386C154.522,373.386 154.38,374 153.347,374C152.879,374 152.19,372.976 151.572,372.976C150.968,372.976 150.439,374 149.728,374C148.81,374 147.819,372.634 146.792,372.634C145.811,372.634 144.799,374 143.788,374C142.914,374 142.178,372.771 141.33,372.771C140.354,372.771 139.273,374 138.394,374C137.167,374 136.067,372.839 135.185,372.839C133.837,372.839 133,374 133,374C132.448,374 132,373.552 132,373L132,362C132,361.448 132.448,361 133,361ZM154,360L134,360C132.895,360 132,359.105 132,358C132,357.952 132.002,357.905 132.006,357.858L131.928,357.869C131.925,357.761 131.912,357.656 131.912,357.547C131.912,353.59 133.812,350.077 136.749,347.871L133.672,344.793C133.086,344.207 133.086,343.257 133.672,342.672C134.257,342.086 135.207,342.086 135.793,342.672L139.328,346.207C139.371,346.25 139.411,346.295 139.447,346.341C140.854,345.767 142.394,345.451 144.008,345.451C145.608,345.451 147.135,345.762 148.533,346.327C148.566,346.286 148.602,346.246 148.64,346.207L152.176,342.672C152.762,342.086 153.711,342.086 154.297,342.672C154.883,343.257 154.883,344.207 154.297,344.793L151.24,347.85C154.192,350.055 156.104,353.578 156.104,357.547C156.104,357.645 156.092,357.74 156.089,357.837C156.061,357.836 156.034,357.829 156.001,357.828L155.992,357.828C155.998,357.887 156,357.943 156,358C156,359.103 155.108,359.997 154,360ZM136,356C135.447,356.001 135,356.448 135,357C135,357.552 135.448,358 136,358L152,358C152.553,357.999 153,357.552 153,357C153,356.448 152.552,356 152,356L153.083,356C152.352,351.643 148.562,348.323 143.997,348.323C139.433,348.323 135.643,351.642 134.911,356L136,356ZM139.5,352C140.328,352 141,352.672 141,353.5C141,354.329 140.328,355 139.5,355C138.672,355 138,354.329 138,353.5C138,352.672 138.672,352 139.5,352ZM148.5,352C149.328,352 150,352.672 150,353.5C150,354.329 149.328,355 148.5,355C147.672,355 147,354.329 147,353.5C147,352.672 147.672,352 148.5,352Z" style="fill:white;fill-opacity:0.7;"/>
            <path id="圆角矩形-1-拷贝-2" serif:id="圆角矩形 1 拷贝 2" d="M154,342.455C154,343.86 155.14,345 156.545,345L167.994,345L154,331.006L154,342.455Z" style="fill:rgb(69,154,0);"/>
        </g>
    </g>
</svg>
