<?xml version="1.0" encoding="UTF-8" standalone="no"?>
<!DOCTYPE svg PUBLIC "-//W3C//DTD SVG 1.1//EN" "http://www.w3.org/Graphics/SVG/1.1/DTD/svg11.dtd">
<svg width="100%" height="100%" viewBox="0 0 61 68" version="1.1" xmlns="http://www.w3.org/2000/svg" xmlns:xlink="http://www.w3.org/1999/xlink" xml:space="preserve" xmlns:serif="http://www.serif.com/" style="fill-rule:evenodd;clip-rule:evenodd;stroke-linejoin:round;stroke-miterlimit:2;">
    <g id="PSD">
    </g>
    <g id="music">
    </g>
    <g id="RAR">
    </g>
    <g id="link">
    </g>
    <g id="ics">
    </g>
    <g id="pdf">
    </g>
    <g id="apk">
    </g>
    <g id="mov">
    </g>
    <g id="pic">
    </g>
    <g id="PPT">
    </g>
    <g id="ECEL">
    </g>
    <g id="doc">
    </g>
    <g id="zip">
    </g>
    <g id="画板1" transform="matrix(0.786543,0,0,0.7043,244.363,-97.5106)">
        <rect x="-310.68" y="138.45" width="77.555" height="96.55" style="fill:none;"/>
        <clipPath id="_clip1">
            <rect x="-310.68" y="138.45" width="77.555" height="96.55"/>
        </clipPath>
        <g clip-path="url(#_clip1)">
            <g id="doc1" serif:id="doc" transform="matrix(1.27139,0,0,1.41985,-590.385,-98.6646)">
                <path id="圆角矩形-1" serif:id="圆角矩形 1" d="M267.5,193.995L268,193.495L268,233C268,234.096 267.119,234.986 266,235L222,235C220.895,235 220,234.105 220,233L220,183C220,181.896 220.895,181 222,181L254.505,181L267.5,193.995Z" style="fill:rgb(36,145,229);"/>
                <path id="矩形-14" serif:id="矩形 14" d="M259,224L228,224L228,221L259,221L259,224ZM259,217L228,217L228,214L259,214L259,217ZM259,210L228,210L228,207L259,207L259,210ZM259,203L228,203L228,200L259,200L259,203ZM252,196L228,196L228,193L252,193L252,196Z" style="fill:white;fill-opacity:0.7;"/>
                <path id="圆角矩形-1-拷贝" serif:id="圆角矩形 1 拷贝" d="M254,192.455C254,193.86 255.14,195 256.545,195L267.994,195L254,181.006L254,192.455Z" style="fill:rgb(0,115,205);"/>
            </g>
        </g>
    </g>
</svg>
