<?xml version="1.0" encoding="UTF-8" standalone="no"?>
<!DOCTYPE svg PUBLIC "-//W3C//DTD SVG 1.1//EN" "http://www.w3.org/Graphics/SVG/1.1/DTD/svg11.dtd">
<svg width="100%" height="100%" viewBox="0 0 61 68" version="1.1" xmlns="http://www.w3.org/2000/svg" xmlns:xlink="http://www.w3.org/1999/xlink" xml:space="preserve" xmlns:serif="http://www.serif.com/" style="fill-rule:evenodd;clip-rule:evenodd;stroke-linejoin:round;stroke-miterlimit:2;">
    <g id="PSD">
    </g>
    <g id="music">
    </g>
    <g id="RAR">
    </g>
    <g id="link">
    </g>
    <g id="ics">
    </g>
    <g id="pdf">
    </g>
    <g id="apk">
    </g>
    <g id="mov">
    </g>
    <g id="pic">
    </g>
    <g id="PPT">
    </g>
    <g id="ECEL">
    </g>
    <g id="doc">
    </g>
    <g id="zip">
    </g>
    <g id="画板1" transform="matrix(0.786543,0,0,0.7043,244.363,-97.5106)">
        <rect x="-310.68" y="138.45" width="77.555" height="96.55" style="fill:none;"/>
        <g id="link1" serif:id="link" transform="matrix(1.27139,0,0,1.41985,-844.658,-311.646)">
            <path id="圆角矩形-1-拷贝-5" serif:id="圆角矩形 1 拷贝 5" d="M467.5,343.995L468,343.495L468,383C468,384.096 467.119,384.986 466,385L422,385C420.895,385 420,384.105 420,383L420,333C420,331.896 420.895,331 422,331L454.505,331L467.5,343.995Z" style="fill:rgb(0,160,232);"/>
            <path id="圆角矩形-5" serif:id="圆角矩形 5" d="M445.244,357.143L446.02,356.368C447.101,355.286 449.972,355.669 451.059,356.756L455.681,361.378C456.768,362.465 457.568,366.528 456.486,367.61L452.61,371.486C451.528,372.568 447.465,371.768 446.378,370.681L441.756,366.059C440.669,364.972 440.286,362.102 441.368,361.02L442.531,359.857L445.244,362.57L445.244,362.57C444.816,362.999 444.725,363.602 445.04,363.917L449.325,368.202C449.641,368.517 450.243,368.426 450.672,367.998L452.997,365.672C453.426,365.243 453.517,364.641 453.202,364.325L448.917,360.04C448.706,359.829 448.366,359.8 448.037,359.936L445.244,357.143ZM440.205,352.879L449.509,362.183C449.937,362.611 449.937,363.305 449.509,363.733L449.121,364.121C448.693,364.549 447.999,364.549 447.57,364.121L438.267,354.817C437.839,354.389 437.839,353.695 438.267,353.267L438.654,352.879C439.083,352.451 439.777,352.451 440.205,352.879ZM442.143,359.469L440.98,360.632C439.899,361.714 437.028,361.331 435.941,360.244L431.319,355.622C430.232,354.535 429.432,350.472 430.514,349.39L434.39,345.514C435.472,344.432 439.536,345.232 440.622,346.319L445.244,350.941C446.331,352.028 446.714,354.899 445.632,355.98L444.857,356.756L442.064,353.963C442.2,353.634 442.171,353.294 441.96,353.083L437.675,348.799C437.36,348.483 436.757,348.574 436.328,349.003L434.003,351.328C433.574,351.757 433.483,352.36 433.799,352.675L438.083,356.96C438.399,357.275 439.001,357.184 439.43,356.756L439.43,356.756L442.143,359.469Z" style="fill:white;fill-opacity:0.7;"/>
            <path id="圆角矩形-1-拷贝-4" serif:id="圆角矩形 1 拷贝 4" d="M454,342.455C454,343.86 455.14,345 456.545,345L467.994,345L454,331.006L454,342.455Z" style="fill:rgb(0,115,168);"/>
        </g>
    </g>
</svg>
