<?xml version="1.0" encoding="UTF-8" standalone="no"?>
<!DOCTYPE svg PUBLIC "-//W3C//DTD SVG 1.1//EN" "http://www.w3.org/Graphics/SVG/1.1/DTD/svg11.dtd">
<svg width="100%" height="100%" viewBox="0 0 61 68" version="1.1" xmlns="http://www.w3.org/2000/svg" xmlns:xlink="http://www.w3.org/1999/xlink" xml:space="preserve" xmlns:serif="http://www.serif.com/" style="fill-rule:evenodd;clip-rule:evenodd;stroke-linejoin:round;stroke-miterlimit:2;">
    <g id="PSD">
    </g>
    <g id="music">
    </g>
    <g id="RAR">
    </g>
    <g id="link">
    </g>
    <g id="ics">
    </g>
    <g id="pdf">
    </g>
    <g id="apk">
    </g>
    <g id="mov">
    </g>
    <g id="pic">
    </g>
    <g id="PPT">
    </g>
    <g id="ECEL">
    </g>
    <g id="doc">
    </g>
    <g id="zip">
    </g>
    <g id="画板1" transform="matrix(0.786543,0,0,0.7043,244.363,-97.5106)">
        <rect x="-310.68" y="138.45" width="77.555" height="96.55" style="fill:none;"/>
        <g id="ics1" serif:id="ics" transform="matrix(1.27139,0,0,1.41985,-717.52,-311.646)">
            <path id="圆角矩形-1-拷贝-5" serif:id="圆角矩形 1 拷贝 5" d="M367.5,343.995L368,343.495L368,383C368,384.096 367.119,384.986 366,385L322,385C320.895,385 320,384.105 320,383L320,333C320,331.896 320.895,331 322,331L354.505,331L367.5,343.995Z" style="fill:rgb(247,117,37);"/>
            <path id="圆角矩形-8-副本" serif:id="圆角矩形 8 副本" d="M341,348L343,348L343,346L346,346L346,348L348,348L348,346L351,346L351,348L356.744,348C357.438,348 358,348.557 358,349.243L358,369.757C358,370.441 357.441,370.997 356.744,371L332.256,371C331.562,371 331,370.443 331,369.757L331,349.243C331,348.557 331.562,348 332.256,348L338,348L338,346L341,346L341,348ZM354.985,351.015L351,351.015L351,353L348,353L348,351.015L346,351.015L346,353L343,353L343,351.015L341,351.015L341,353L338,353L338,351.015L334.015,351.015L334.015,367.986L354.985,367.986L354.985,351.015ZM351,356.004L351,358C350.037,359.191 349.347,360.046 349,361C348.653,361.954 348.516,362.66 348.516,363.893L348.516,365.006L346.809,365.006L346.809,363.893C346.809,362.64 347.026,361.497 347.461,360.465C347.895,359.433 348.17,359.014 349,358L345,358L345.014,356.004L351,356.004ZM337.994,357.678L337.994,356.318L342.016,356.001L342.016,365.006L340.039,365.006L340.039,357.678L337.994,357.678Z" style="fill:white;fill-opacity:0.7;"/>
            <path id="圆角矩形-1-拷贝-4" serif:id="圆角矩形 1 拷贝 4" d="M354,342.455C354,343.86 355.14,345 356.545,345L367.994,345L354,331.006L354,342.455Z" style="fill:rgb(203,77,0);"/>
        </g>
    </g>
</svg>
