<?xml version="1.0" encoding="UTF-8" standalone="no"?>
<!DOCTYPE svg PUBLIC "-//W3C//DTD SVG 1.1//EN" "http://www.w3.org/Graphics/SVG/1.1/DTD/svg11.dtd">
<svg width="100%" height="100%" viewBox="0 0 61 68" version="1.1" xmlns="http://www.w3.org/2000/svg" xmlns:xlink="http://www.w3.org/1999/xlink" xml:space="preserve" xmlns:serif="http://www.serif.com/" style="fill-rule:evenodd;clip-rule:evenodd;stroke-linejoin:round;stroke-miterlimit:2;">
    <g id="PSD">
    </g>
    <g id="music">
    </g>
    <g id="RAR">
    </g>
    <g id="link">
    </g>
    <g id="ics">
    </g>
    <g id="pdf">
    </g>
    <g id="apk">
    </g>
    <g id="mov">
    </g>
    <g id="pic">
    </g>
    <g id="PPT">
    </g>
    <g id="ECEL">
    </g>
    <g id="doc">
    </g>
    <g id="zip">
    </g>
    <g id="画板1" transform="matrix(0.786543,0,0,0.7043,244.363,-97.5106)">
        <rect x="-310.68" y="138.45" width="77.555" height="96.55" style="fill:none;"/>
        <g id="music1" serif:id="music" transform="matrix(1.27139,0,0,1.41985,-1098.94,-311.646)">
            <path id="圆角矩形-1-拷贝-5" serif:id="圆角矩形 1 拷贝 5" d="M667.5,343.995L668,343.495L668,383C668,384.096 667.119,384.986 666,385L622,385C620.895,385 620,384.105 620,383L620,333C620,331.896 620.895,331 622,331L654.505,331L667.5,343.995Z" style="fill:rgb(255,135,0);"/>
            <path id="矩形-20" serif:id="矩形 20" d="M637.1,346.374C638.723,345.492 641.833,343.99 645.162,343.391C650.069,342.507 655.006,343.355 655.006,343.355L655.006,350.999L654.994,350.997L654.994,365.443C655.174,367.397 653.511,369.306 651.084,369.825C648.489,370.38 646.005,369.136 645.535,367.047C645.065,364.958 646.788,362.815 649.382,362.26C650.293,362.065 651.191,362.092 651.993,362.301L651.993,350.687C650.149,350.58 647.675,350.583 645.204,351.028C642.895,351.443 640.688,352.291 639.008,353.069L639.008,370.006L638.799,370.006C638.583,371.786 636.989,373.401 634.782,373.881C632.109,374.462 629.55,373.158 629.066,370.968C628.581,368.778 630.356,366.531 633.029,365.949C634.075,365.722 635.103,365.783 635.997,366.074L635.996,354.654L635.929,354.695L635.929,347.051L635.996,347.01L635.996,346.596L637.1,346.374Z" style="fill:white;fill-opacity:0.7;"/>
            <path id="圆角矩形-1-拷贝-4" serif:id="圆角矩形 1 拷贝 4" d="M654,342.455C654,343.86 655.14,345 656.545,345L667.994,345L654,331.006L654,342.455Z" style="fill:rgb(197,105,0);"/>
        </g>
    </g>
</svg>
