<?xml version="1.0" encoding="UTF-8" standalone="no"?>
<!DOCTYPE svg PUBLIC "-//W3C//DTD SVG 1.1//EN" "http://www.w3.org/Graphics/SVG/1.1/DTD/svg11.dtd">
<svg width="100%" height="100%" viewBox="0 0 61 68" version="1.1" xmlns="http://www.w3.org/2000/svg" xmlns:xlink="http://www.w3.org/1999/xlink" xml:space="preserve" xmlns:serif="http://www.serif.com/" style="fill-rule:evenodd;clip-rule:evenodd;stroke-linejoin:round;stroke-miterlimit:2;">
    <g id="PSD">
    </g>
    <g id="music">
    </g>
    <g id="RAR">
    </g>
    <g id="link">
    </g>
    <g id="ics">
    </g>
    <g id="pdf">
    </g>
    <g id="apk">
    </g>
    <g id="mov">
    </g>
    <g id="pic">
    </g>
    <g id="PPT">
    </g>
    <g id="ECEL">
    </g>
    <g id="doc">
    </g>
    <g id="zip">
    </g>
    <g id="画板1" transform="matrix(0.786543,0,0,0.7043,244.363,-97.5106)">
        <rect x="-310.68" y="138.45" width="77.555" height="96.55" style="fill:none;"/>
        <clipPath id="_clip1">
            <rect x="-310.68" y="138.45" width="77.555" height="96.55"/>
        </clipPath>
        <g clip-path="url(#_clip1)">
            <g id="PPT1" serif:id="PPT" transform="matrix(1.27139,0,0,1.41985,-844.662,-98.6646)">
                <path id="圆角矩形-1-拷贝-5" serif:id="圆角矩形 1 拷贝 5" d="M467.5,193.995L468,193.495L468,233C468,234.096 467.119,234.986 466,235L422,235C420.895,235 420,234.105 420,233L420,183C420,181.896 420.895,181 422,181L454.505,181L467.5,193.995Z" style="fill:rgb(248,118,37);"/>
                <path id="圆角矩形-4" serif:id="圆角矩形 4" d="M443,198L429,198C428.448,198 428,197.552 428,197C428,196.448 428.448,196 429,196L459,196C459.552,196 460,196.448 460,197C460,197.552 459.553,197.999 459,198L445,198L445,199L455,199C456.105,199 457,199.895 457,201L457,215C457,216.104 456.106,216.999 455,217L445,217L445,220.001C445.175,219.998 445.353,220.041 445.515,220.134L452.492,224.134C452.973,224.41 453.138,225.022 452.86,225.5C452.582,225.978 451.967,226.142 451.485,225.866L445,222.148L445,227C445,227.552 444.552,228 444,228C443.448,228 443,227.552 443,227L443,222.148L436.515,225.866C436.034,226.142 435.418,225.978 435.14,225.5C434.862,225.022 435.027,224.41 435.508,224.134L442.485,220.134C442.647,220.041 442.825,219.998 443,220.001L443,217L433,217C431.895,217 431,216.105 431,215L431,201C431,199.895 431.895,199 433,199L443,199L443,198Z" style="fill:white;fill-opacity:0.7;"/>
                <path id="圆角矩形-1-拷贝-4" serif:id="圆角矩形 1 拷贝 4" d="M454,192.455C454,193.86 455.14,195 456.545,195L467.994,195L454,181.006L454,192.455Z" style="fill:rgb(204,77,0);"/>
            </g>
        </g>
    </g>
</svg>
