<?xml version="1.0" encoding="UTF-8" standalone="no"?>
<!DOCTYPE svg PUBLIC "-//W3C//DTD SVG 1.1//EN" "http://www.w3.org/Graphics/SVG/1.1/DTD/svg11.dtd">
<svg width="100%" height="100%" viewBox="0 0 61 68" version="1.1" xmlns="http://www.w3.org/2000/svg" xmlns:xlink="http://www.w3.org/1999/xlink" xml:space="preserve" xmlns:serif="http://www.serif.com/" style="fill-rule:evenodd;clip-rule:evenodd;stroke-linejoin:round;stroke-miterlimit:2;">
    <g id="PSD">
    </g>
    <g id="music">
    </g>
    <g id="RAR">
    </g>
    <g id="link">
    </g>
    <g id="ics">
    </g>
    <g id="pdf">
    </g>
    <g id="apk">
    </g>
    <g id="mov">
    </g>
    <g id="pic">
    </g>
    <g id="PPT">
    </g>
    <g id="ECEL">
    </g>
    <g id="doc">
    </g>
    <g id="zip">
    </g>
    <g id="画板1" transform="matrix(0.786543,0,0,0.7043,244.363,-97.5106)">
        <rect x="-310.68" y="138.45" width="77.555" height="96.55" style="fill:none;"/>
        <g id="RAR1" serif:id="RAR" transform="matrix(1.27139,0,0,1.41985,-971.797,-311.646)">
            <path id="圆角矩形-1-拷贝-5" serif:id="圆角矩形 1 拷贝 5" d="M567.5,343.995L568,343.495L568,383C568,384.096 567.119,384.986 566,385L522,385C520.895,385 520,384.105 520,383L520,333C520,331.896 520.895,331 522,331L554.505,331L567.5,343.995Z" style="fill:rgb(171,171,171);"/>
            <path id="圆角矩形-1-拷贝-4" serif:id="圆角矩形 1 拷贝 4" d="M554,342.455C554,343.86 555.14,345 556.545,345L567.994,345L554,331.006L554,342.455Z" style="fill:rgb(145,145,145);"/>
            <path id="rar" d="M534.897,368.996C535.879,368.996 536.588,369.077 537.03,369.238C537.474,369.4 537.829,369.688 538.096,370.101C538.362,370.515 538.495,370.988 538.495,371.52C538.495,372.195 538.293,372.753 537.889,373.193C537.485,373.633 536.881,373.911 536.078,374.025C536.478,374.255 536.808,374.506 537.068,374.78C537.328,375.055 537.679,375.542 538.121,376.242L539.239,377.998L537.027,377.998L535.69,376.039C535.216,375.339 534.891,374.898 534.716,374.716C534.541,374.534 534.356,374.409 534.16,374.341C533.964,374.274 533.654,374.24 533.229,374.24L533,374L533,378L531.005,377.998L531.005,368.996L534.897,368.996ZM553.897,368.996C554.879,368.996 555.588,369.077 556.03,369.238C556.474,369.4 556.829,369.688 557.096,370.101C557.362,370.515 557.495,370.988 557.495,371.52C557.495,372.195 557.293,372.753 556.889,373.193C556.485,373.633 555.882,373.911 555.078,374.025C555.478,374.255 555.808,374.506 556.068,374.78C556.328,375.055 556.679,375.542 557.121,376.242L558.239,377.998L556.027,377.998L554.69,376.039C554.216,375.339 553.891,374.898 553.716,374.716C553.541,374.534 553.356,374.409 553.16,374.341C552.964,374.274 552.654,374.24 552.229,374.24L552,374L552,378L550.005,377.998L550.005,368.996L553.897,368.996ZM545.47,368.996L549.137,377.998L547.125,377.998L546.325,375.953L542.665,375.953L541.909,377.998L539.947,377.998L543.514,368.996L545.47,368.996ZM545.732,374.437L544.47,371.096L543.233,374.437L545.732,374.437ZM534.222,372.803C535.112,372.803 535.664,372.766 535.884,372.693C536.105,372.619 536.278,372.492 536.403,372.312C536.528,372.132 536.59,371.907 536.59,371.636C536.59,371.333 536.508,371.089 536.343,370.903C536.179,370.716 535.947,370.599 535.647,370.549C535.497,370.529 535.047,370.519 534.297,370.519L532.854,370.519L532.854,372.803L534.222,372.803ZM553.222,372.803C554.112,372.803 554.664,372.766 554.884,372.693C555.105,372.619 555.278,372.492 555.403,372.312C555.528,372.132 555.59,371.907 555.59,371.636C555.59,371.333 555.508,371.089 555.343,370.903C555.179,370.716 554.947,370.599 554.647,370.549C554.497,370.529 554.047,370.519 553.297,370.519L551.854,370.519L551.854,372.803L553.222,372.803Z" style="fill:white;"/>
            <path id="圆角矩形-3-拷贝" serif:id="圆角矩形 3 拷贝" d="M541.551,359C540.74,359 541.061,358.828 541.061,358C541.061,357.172 540.74,356.003 541.551,356L542.531,356C543.344,356.001 544,356.672 544,357.5C544,358.328 543.344,358.999 542.531,359C542.817,359.001 543.449,359.144 544.148,359.366C544.695,359.143 545.21,359 545.5,359L546.5,359C547.328,359 547,360.172 547,361C547,361.828 547.328,362 546.5,362L545.5,362C545.21,362 544.695,361.979 544.148,361.915C543.446,361.979 542.814,362 542.531,362L541.551,362C540.739,362 541.061,361.828 541.061,361C541.061,360.172 540.74,359.002 541.551,359ZM546.5,356L545.5,356C544.672,356 544,355.328 544,354.5C544,353.672 544.672,353 545.5,353L546.5,353C547.328,353 547,354.172 547,355C547,355.828 547.328,356 546.5,356ZM542.531,350C543.344,350.001 544,350.672 544,351.5C544,352.328 543.344,352.999 542.531,353L541.551,353C540.739,353 541.061,352.828 541.061,352C541.061,351.172 540.74,350.003 541.551,350L542.531,350ZM546.5,350L545.5,350C544.672,350 544,349.328 544,348.5C544,347.672 544.672,347 545.5,347L546.5,347C547.328,347 547,348.172 547,349C547,349.828 547.328,350 546.5,350ZM542.531,344C543.344,344.001 544,344.672 544,345.5C544,346.328 543.344,346.999 542.531,347L541.551,347C540.739,347 541.061,346.828 541.061,346C541.061,345.172 540.74,344.002 541.551,344L542.531,344ZM546.5,344L545.5,344C544.672,344 544,343.328 544,342.5C544,341.672 544.672,341 545.5,341L546.5,341C547.328,341 547,342.172 547,343C547,343.828 547.328,344 546.5,344ZM542.531,338C543.344,338.001 544,338.673 544,339.5C544,340.328 543.344,340.999 542.531,341L541.551,341C540.739,341 541.061,340.828 541.061,340C541.061,339.172 540.74,338.002 541.551,338L542.531,338ZM546.5,337L545.5,337C544.672,337 544,336.328 544,335.5C544,334.672 544.672,334 545.5,334L546.5,334C547.328,334 547,335.172 547,336C547,336.828 547.328,337 546.5,337ZM542.531,331C543.344,331.001 544,331.672 544,332.5C544,333.328 543.344,333.999 542.531,334L541.551,334C540.739,334 541.061,333.828 541.061,333C541.061,332.172 540.74,331.003 541.551,331L542.531,331Z" style="fill:white;fill-opacity:0.6;"/>
        </g>
    </g>
</svg>
