<svg clip-rule="evenodd" fill-rule="evenodd" stroke-linejoin="round" stroke-miterlimit="2" viewBox="0 0 61 68" xmlns="http://www.w3.org/2000/svg" xmlns:xlink="http://www.w3.org/1999/xlink"><clipPath id="a"><path clip-rule="evenodd" d="m-310.68 138.45h77.555v96.55h-77.555z"/></clipPath><g transform="matrix(.786543 0 0 .7043 244.363 -97.5106)"><path d="m-310.68 138.45h77.555v96.55h-77.555z" fill="none"/><g clip-path="url(#a)"><g transform="matrix(1.27139 0 0 1.41985 -463.246 -98.6646)"><path d="m167.5 193.995.5-.5v39.505c0 1.096-.881 1.986-2 2h-44c-1.105 0-2-.895-2-2v-50c0-1.104.895-2 2-2h32.505z" fill="#acacac"/><path d="m154 192.455c0 1.405 1.14 2.545 2.545 2.545h11.449l-13.994-13.994z" fill="#919191"/><g fill="#fff"><path d="m140.551 209c-.811 0-.49-.172-.49-1s-.321-1.997.49-2h.98c.813.001 1.469.672 1.469 1.5s-.656 1.499-1.469 1.5c.286.001.918.144 1.617.366.547-.223 1.062-.366 1.352-.366h1c.828 0 .5 1.172.5 2s.328 1-.5 1h-1c-.29 0-.805-.021-1.352-.085-.702.064-1.334.085-1.617.085h-.98c-.811 0-.49-.172-.49-1s-.321-1.998.49-2zm4.949-3h-1c-.828 0-1.5-.672-1.5-1.5s.672-1.5 1.5-1.5h1c.828 0 .5 1.172.5 2s.328 1-.5 1zm-3.969-6c.813.001 1.469.672 1.469 1.5s-.656 1.499-1.469 1.5h-.98c-.811 0-.49-.172-.49-1s-.321-1.997.49-2zm3.969 0h-1c-.828 0-1.5-.672-1.5-1.5s.672-1.5 1.5-1.5h1c.828 0 .5 1.172.5 2s.328 1-.5 1zm-3.969-6c.813.001 1.469.672 1.469 1.5s-.656 1.499-1.469 1.5h-.98c-.811 0-.49-.172-.49-1s-.321-1.998.49-2zm3.969 0h-1c-.828 0-1.5-.672-1.5-1.5s.672-1.5 1.5-1.5h1c.828 0 .5 1.172.5 2s.328 1-.5 1zm-3.969-6c.813.001 1.469.673 1.469 1.5 0 .828-.656 1.499-1.469 1.5h-.98c-.811 0-.49-.172-.49-1s-.321-1.998.49-2zm3.969-1h-1c-.828 0-1.5-.672-1.5-1.5s.672-1.5 1.5-1.5h1c.828 0 .5 1.172.5 2s.328 1-.5 1zm-3.969-6c.813.001 1.469.672 1.469 1.5s-.656 1.499-1.469 1.5h-.98c-.811 0-.49-.172-.49-1s-.321-1.997.49-2z" fill-opacity=".6"/><path d="m149 220h2v.186c.521-.121 1.176-.186 2-.186 2.209 0 4 1.791 4 4s-1.791 4-4 4c-.729 0-1.412-.195-2-.536v2.536h-2zm-8 8h-8v-2l5-6h-5v-2h8v2l-5 6h5zm5 0h-2v-7h2zm7-6c1.105 0 2 .896 2 2 0 1.105-.895 2-2 2s-2-.895-2-2c0-1.104.895-2 2-2zm-7-2h-2v-2h2z"/></g></g></g></g></svg>